<mxfile host="Electron" agent="Mozilla/5.0 (Windows NT 10.0; Win64; x64) AppleWebKit/537.36 (KHTML, like Gecko) draw.io/24.7.17 Chrome/128.0.6613.36 Electron/32.0.1 Safari/537.36" version="24.7.17">
  <diagram id="kgpKYQtTHZ0yAKxKKP6v" name="Page-1">
    <mxGraphModel dx="1036" dy="614" grid="1" gridSize="10" guides="1" tooltips="1" connect="1" arrows="1" fold="1" page="1" pageScale="1" pageWidth="850" pageHeight="1100" math="0" shadow="0">
      <root>
        <mxCell id="0" />
        <mxCell id="1" parent="0" />
        <mxCell id="3nuBFxr9cyL0pnOWT2aG-1" value="Gestion Fuego" style="shape=table;childLayout=tableLayout;startSize=40;collapsible=0;recursiveResize=0;expand=0;fillColor=none;fontStyle=1" parent="1" vertex="1">
          <mxGeometry x="90" y="70" width="430" height="300" as="geometry" />
        </mxCell>
        <mxCell id="3nuBFxr9cyL0pnOWT2aG-3" value="frontend" style="shape=tableRow;horizontal=0;swimlaneHead=0;swimlaneBody=0;top=0;left=0;bottom=0;right=0;fillColor=none;points=[[0,0.5],[1,0.5]];portConstraint=eastwest;startSize=40;collapsible=0;recursiveResize=0;expand=0;fontStyle=1;" parent="3nuBFxr9cyL0pnOWT2aG-1" vertex="1">
          <mxGeometry y="40" width="430" height="180" as="geometry" />
        </mxCell>
        <mxCell id="3nuBFxr9cyL0pnOWT2aG-4" value="Lenguaje" style="swimlane;swimlaneHead=0;swimlaneBody=0;connectable=0;fillColor=none;startSize=30;collapsible=0;recursiveResize=0;expand=0;fontStyle=1;" parent="3nuBFxr9cyL0pnOWT2aG-3" vertex="1">
          <mxGeometry x="40" width="80" height="180" as="geometry">
            <mxRectangle width="80" height="180" as="alternateBounds" />
          </mxGeometry>
        </mxCell>
        <mxCell id="3nuBFxr9cyL0pnOWT2aG-8" value="Programas" style="swimlane;swimlaneHead=0;swimlaneBody=0;connectable=0;fillColor=none;startSize=30;collapsible=0;recursiveResize=0;expand=0;fontStyle=1;" parent="3nuBFxr9cyL0pnOWT2aG-3" vertex="1">
          <mxGeometry x="120" width="230" height="180" as="geometry">
            <mxRectangle width="230" height="180" as="alternateBounds" />
          </mxGeometry>
        </mxCell>
        <mxCell id="jTlC2fMoAMMvYflziN6Z-11" style="edgeStyle=orthogonalEdgeStyle;rounded=0;orthogonalLoop=1;jettySize=auto;html=1;exitX=0.5;exitY=0;exitDx=0;exitDy=0;" edge="1" parent="3nuBFxr9cyL0pnOWT2aG-8" source="jTlC2fMoAMMvYflziN6Z-7" target="jTlC2fMoAMMvYflziN6Z-9">
          <mxGeometry relative="1" as="geometry" />
        </mxCell>
        <mxCell id="jTlC2fMoAMMvYflziN6Z-12" style="edgeStyle=orthogonalEdgeStyle;rounded=0;orthogonalLoop=1;jettySize=auto;html=1;exitX=0.75;exitY=1;exitDx=0;exitDy=0;entryX=0;entryY=1;entryDx=0;entryDy=0;" edge="1" parent="3nuBFxr9cyL0pnOWT2aG-8" source="jTlC2fMoAMMvYflziN6Z-7" target="jTlC2fMoAMMvYflziN6Z-10">
          <mxGeometry relative="1" as="geometry" />
        </mxCell>
        <mxCell id="jTlC2fMoAMMvYflziN6Z-7" value="inicio sesion" style="rounded=1;whiteSpace=wrap;html=1;" vertex="1" parent="3nuBFxr9cyL0pnOWT2aG-8">
          <mxGeometry x="22.5" y="110" width="85" height="30" as="geometry" />
        </mxCell>
        <mxCell id="jTlC2fMoAMMvYflziN6Z-9" value="Historial reportes" style="ellipse;whiteSpace=wrap;html=1;" vertex="1" parent="3nuBFxr9cyL0pnOWT2aG-8">
          <mxGeometry x="117.5" y="80" width="110" height="40" as="geometry" />
        </mxCell>
        <mxCell id="jTlC2fMoAMMvYflziN6Z-10" value="Generar reporte" style="ellipse;whiteSpace=wrap;html=1;" vertex="1" parent="3nuBFxr9cyL0pnOWT2aG-8">
          <mxGeometry x="107.5" y="130" width="120" height="40" as="geometry" />
        </mxCell>
        <mxCell id="3nuBFxr9cyL0pnOWT2aG-11" value="&#xa;" style="swimlane;swimlaneHead=0;swimlaneBody=0;connectable=0;fillColor=none;startSize=30;collapsible=0;recursiveResize=0;expand=0;fontStyle=1;" parent="3nuBFxr9cyL0pnOWT2aG-3" vertex="1">
          <mxGeometry x="350" width="80" height="180" as="geometry">
            <mxRectangle width="80" height="180" as="alternateBounds" />
          </mxGeometry>
        </mxCell>
        <mxCell id="3nuBFxr9cyL0pnOWT2aG-15" value="Backend" style="shape=tableRow;horizontal=0;swimlaneHead=0;swimlaneBody=0;top=0;left=0;bottom=0;right=0;fillColor=none;points=[[0,0.5],[1,0.5]];portConstraint=eastwest;startSize=40;collapsible=0;recursiveResize=0;expand=0;fontStyle=1;" parent="3nuBFxr9cyL0pnOWT2aG-1" vertex="1">
          <mxGeometry y="220" width="430" height="80" as="geometry" />
        </mxCell>
        <mxCell id="3nuBFxr9cyL0pnOWT2aG-16" value="" style="swimlane;swimlaneHead=0;swimlaneBody=0;connectable=0;fillColor=none;startSize=0;collapsible=0;recursiveResize=0;expand=0;fontStyle=1;" parent="3nuBFxr9cyL0pnOWT2aG-15" vertex="1">
          <mxGeometry x="40" width="80" height="80" as="geometry">
            <mxRectangle width="80" height="80" as="alternateBounds" />
          </mxGeometry>
        </mxCell>
        <mxCell id="3nuBFxr9cyL0pnOWT2aG-17" value="Python" style="rounded=0;whiteSpace=wrap;html=1;" parent="3nuBFxr9cyL0pnOWT2aG-16" vertex="1">
          <mxGeometry x="5" y="20" width="70" height="40" as="geometry" />
        </mxCell>
        <mxCell id="3nuBFxr9cyL0pnOWT2aG-18" value="" style="swimlane;swimlaneHead=0;swimlaneBody=0;connectable=0;fillColor=none;startSize=0;collapsible=0;recursiveResize=0;expand=0;fontStyle=1;" parent="3nuBFxr9cyL0pnOWT2aG-15" vertex="1">
          <mxGeometry x="120" width="230" height="80" as="geometry">
            <mxRectangle width="230" height="80" as="alternateBounds" />
          </mxGeometry>
        </mxCell>
        <mxCell id="3nuBFxr9cyL0pnOWT2aG-21" value="SQL Server" style="shape=document;whiteSpace=wrap;html=1;boundedLbl=1;" parent="3nuBFxr9cyL0pnOWT2aG-18" vertex="1">
          <mxGeometry x="140" y="10" width="80" height="60" as="geometry" />
        </mxCell>
        <mxCell id="3nuBFxr9cyL0pnOWT2aG-6" value="&lt;span id=&quot;docs-internal-guid-709f10b3-7fff-d7b6-e01b-0d1693570c25&quot;&gt;&lt;span style=&quot;font-size: 11pt; font-family: Arial, sans-serif; color: rgb(255, 255, 255); background-color: transparent; font-weight: 700; font-variant-numeric: normal; font-variant-east-asian: normal; font-variant-alternates: normal; font-variant-position: normal; vertical-align: baseline; white-space-collapse: preserve;&quot;&gt;Vue.js&lt;/span&gt;&lt;/span&gt;" style="rounded=1;whiteSpace=wrap;html=1;arcSize=50;" parent="3nuBFxr9cyL0pnOWT2aG-18" vertex="1">
          <mxGeometry x="20" y="20" width="90" height="40" as="geometry" />
        </mxCell>
        <mxCell id="jTlC2fMoAMMvYflziN6Z-6" value="" style="endArrow=classic;startArrow=classic;html=1;rounded=0;" edge="1" parent="3nuBFxr9cyL0pnOWT2aG-18" source="3nuBFxr9cyL0pnOWT2aG-6" target="3nuBFxr9cyL0pnOWT2aG-21">
          <mxGeometry width="50" height="50" relative="1" as="geometry">
            <mxPoint x="90" as="sourcePoint" />
            <mxPoint x="140" y="-50" as="targetPoint" />
            <Array as="points" />
          </mxGeometry>
        </mxCell>
        <mxCell id="3nuBFxr9cyL0pnOWT2aG-23" value="" style="swimlane;swimlaneHead=0;swimlaneBody=0;connectable=0;fillColor=none;startSize=0;collapsible=0;recursiveResize=0;expand=0;fontStyle=1;" parent="3nuBFxr9cyL0pnOWT2aG-15" vertex="1">
          <mxGeometry x="350" width="80" height="80" as="geometry">
            <mxRectangle width="80" height="80" as="alternateBounds" />
          </mxGeometry>
        </mxCell>
        <mxCell id="jTlC2fMoAMMvYflziN6Z-5" value="" style="endArrow=classic;html=1;rounded=0;exitX=1;exitY=0.5;exitDx=0;exitDy=0;" edge="1" parent="3nuBFxr9cyL0pnOWT2aG-15" source="3nuBFxr9cyL0pnOWT2aG-17" target="3nuBFxr9cyL0pnOWT2aG-6">
          <mxGeometry width="50" height="50" relative="1" as="geometry">
            <mxPoint x="100" y="50" as="sourcePoint" />
            <mxPoint x="150" as="targetPoint" />
          </mxGeometry>
        </mxCell>
        <mxCell id="jTlC2fMoAMMvYflziN6Z-8" style="edgeStyle=orthogonalEdgeStyle;rounded=0;orthogonalLoop=1;jettySize=auto;html=1;exitX=0.5;exitY=0;exitDx=0;exitDy=0;entryX=0.5;entryY=1;entryDx=0;entryDy=0;" edge="1" parent="3nuBFxr9cyL0pnOWT2aG-1" source="3nuBFxr9cyL0pnOWT2aG-6" target="jTlC2fMoAMMvYflziN6Z-7">
          <mxGeometry relative="1" as="geometry" />
        </mxCell>
      </root>
    </mxGraphModel>
  </diagram>
</mxfile>
